<svg width="87" height="19" viewBox="0 0 87 19" fill="none" xmlns="http://www.w3.org/2000/svg">
<path d="M15.7808 7.85173C15.7808 8.89985 15.5107 9.80688 14.9706 10.5728C14.4384 11.3387 13.6806 11.9313 12.6969 12.3506C11.7214 12.7698 10.5684 12.9795 9.23813 12.9795C8.35125 12.9795 7.54097 12.8867 6.80729 12.7013C6.0736 12.5159 5.43264 12.2538 4.88439 11.9152L5.0537 10.8389C5.34395 11.0404 5.65839 11.2097 5.99701 11.3468C6.33563 11.4758 6.69441 11.5766 7.07335 11.6492C7.45229 11.7137 7.84735 11.7459 8.25853 11.7459C9.00028 11.7459 9.66141 11.5927 10.2419 11.2863C10.8224 10.98 11.2779 10.5285 11.6085 9.93185C11.9391 9.33522 12.1043 8.6096 12.1043 7.75498C12.1043 6.76329 11.9068 5.90464 11.5117 5.17901C11.1247 4.45339 10.5765 3.88902 9.867 3.48589C9.1575 3.08277 8.32304 2.88121 7.3636 2.88121H6.4082V16.5955C6.4082 16.7729 6.45657 16.926 6.55332 17.055C6.65007 17.176 6.80326 17.2526 7.01288 17.2848L8.06504 17.43C8.2666 17.4703 8.41172 17.5388 8.50041 17.6355C8.5891 17.7323 8.63344 17.8734 8.63344 18.0588C8.63344 18.2281 8.57297 18.3652 8.45203 18.47C8.33916 18.5668 8.15776 18.6151 7.90782 18.6151H1.59489C1.34496 18.6151 1.15952 18.5668 1.03858 18.47C0.917646 18.3652 0.857178 18.2281 0.857178 18.0588C0.857178 17.7525 1.02649 17.5469 1.36511 17.442L2.06655 17.2848C2.26005 17.2284 2.40517 17.1437 2.50192 17.0309C2.60674 16.918 2.65914 16.7729 2.65914 16.5955V3.70358C2.65914 3.52621 2.60674 3.38108 2.50192 3.26821C2.40517 3.15533 2.26005 3.07068 2.06655 3.01424L1.36511 2.85702C1.02649 2.75221 0.857178 2.54661 0.857178 2.24024C0.857178 2.06287 0.917646 1.9258 1.03858 1.82905C1.15952 1.7323 1.34496 1.68393 1.59489 1.68393H7.46035C9.21797 1.68393 10.7176 1.94999 11.9592 2.48211C13.2008 3.00618 14.1482 3.73583 14.8012 4.67108C15.4543 5.59826 15.7808 6.65848 15.7808 7.85173Z" fill="#0D0D0D"/>
<path d="M27.4592 11.4677C27.4592 11.8951 27.3383 12.2256 27.0964 12.4594C26.8545 12.6852 26.4998 12.7981 26.0321 12.7981H18.4857V11.8789H23.432C23.8432 11.8789 24.0488 11.6935 24.0488 11.3226C24.0488 10.2584 23.8553 9.45213 23.4683 8.90388C23.0813 8.34757 22.5613 8.06941 21.9082 8.06941C21.4083 8.06941 20.9649 8.2226 20.5779 8.52897C20.1909 8.83535 19.8885 9.27475 19.6709 9.84719C19.4532 10.4116 19.3443 11.0969 19.3443 11.9031C19.3443 13.4592 19.7071 14.6282 20.4328 15.4103C21.1664 16.1924 22.142 16.5834 23.3594 16.5834C24.0689 16.5834 24.6897 16.4423 25.2219 16.1601C25.7621 15.8779 26.1813 15.4748 26.4796 14.9507C26.6247 14.7895 26.7376 14.6806 26.8182 14.6242C26.9069 14.5678 26.9956 14.5396 27.0843 14.5396C27.2133 14.5396 27.306 14.6 27.3625 14.721C27.4189 14.8338 27.4471 14.9709 27.4471 15.1321C27.4149 15.8094 27.173 16.4383 26.7215 17.0188C26.27 17.5912 25.6613 18.0508 24.8953 18.3974C24.1294 18.7441 23.2506 18.9175 22.2589 18.9175C21.0898 18.9175 20.0538 18.6796 19.1508 18.204C18.2478 17.7202 17.5383 17.047 17.0223 16.1843C16.5144 15.3136 16.2604 14.2977 16.2604 13.1367C16.2604 11.9192 16.5023 10.8389 16.986 9.89557C17.4779 8.95225 18.1793 8.21454 19.0904 7.68241C20.0014 7.15029 21.0898 6.88423 22.3557 6.88423C23.436 6.88423 24.3552 7.08176 25.113 7.47682C25.879 7.86382 26.4595 8.40401 26.8545 9.09738C27.2576 9.78269 27.4592 10.5728 27.4592 11.4677Z" fill="#0D0D0D"/>
<path d="M39.8723 11.4677C39.8723 11.8951 39.7513 12.2256 39.5095 12.4594C39.2676 12.6852 38.9128 12.7981 38.4452 12.7981H30.8987V11.8789H35.8451C36.2563 11.8789 36.4619 11.6935 36.4619 11.3226C36.4619 10.2584 36.2684 9.45213 35.8814 8.90388C35.4944 8.34757 34.9743 8.06941 34.3213 8.06941C33.8214 8.06941 33.378 8.2226 32.991 8.52897C32.604 8.83535 32.3016 9.27475 32.0839 9.84719C31.8662 10.4116 31.7574 11.0969 31.7574 11.9031C31.7574 13.4592 32.1202 14.6282 32.8458 15.4103C33.5795 16.1924 34.5551 16.5834 35.7725 16.5834C36.482 16.5834 37.1028 16.4423 37.6349 16.1601C38.1751 15.8779 38.5944 15.4748 38.8927 14.9507C39.0378 14.7895 39.1507 14.6806 39.2313 14.6242C39.32 14.5678 39.4087 14.5396 39.4974 14.5396C39.6264 14.5396 39.7191 14.6 39.7755 14.721C39.832 14.8338 39.8602 14.9709 39.8602 15.1321C39.8279 15.8094 39.5861 16.4383 39.1346 17.0188C38.6831 17.5912 38.0743 18.0508 37.3084 18.3974C36.5425 18.7441 35.6637 18.9175 34.672 18.9175C33.5029 18.9175 32.4669 18.6796 31.5639 18.204C30.6609 17.7202 29.9514 17.047 29.4354 16.1843C28.9275 15.3136 28.6735 14.2977 28.6735 13.1367C28.6735 11.9192 28.9154 10.8389 29.3991 9.89557C29.8909 8.95225 30.5924 8.21454 31.5034 7.68241C32.4145 7.15029 33.5029 6.88423 34.7687 6.88423C35.8491 6.88423 36.7682 7.08176 37.5261 7.47682C38.292 7.86382 38.8725 8.40401 39.2676 9.09738C39.6707 9.78269 39.8723 10.5728 39.8723 11.4677Z" fill="#0D0D0D"/>
<path d="M45.5129 12.2055C45.5129 11.0364 45.6782 10.0568 46.0087 9.26669C46.3393 8.47657 46.7746 7.88398 47.3148 7.48891C47.855 7.08579 48.4355 6.88423 49.0563 6.88423C49.8223 6.88423 50.4149 7.10192 50.8341 7.53729C51.2534 7.97266 51.463 8.59751 51.463 9.41182C51.463 10.1374 51.3138 10.6776 51.0155 11.0324C50.7172 11.3871 50.3302 11.5645 49.8545 11.5645C49.3708 11.5645 49.0039 11.4355 48.754 11.1775C48.5041 10.9195 48.3791 10.5607 48.3791 10.1012V9.66578C48.371 9.40779 48.3106 9.21832 48.1977 9.09738C48.0848 8.96838 47.8994 8.90388 47.6414 8.90388C47.3592 8.90388 47.0851 9.02079 46.819 9.2546C46.561 9.48841 46.3473 9.84316 46.178 10.3188C46.0168 10.7945 45.9361 11.4032 45.9361 12.145L45.5129 12.2055ZM45.7426 7.7187L45.9361 10.464V16.668C45.9361 16.9019 45.9805 17.0752 46.0692 17.1881C46.1659 17.2929 46.3352 17.3655 46.5771 17.4058L47.6172 17.563C47.8026 17.5952 47.9397 17.6557 48.0284 17.7444C48.1251 17.8331 48.1735 17.954 48.1735 18.1072C48.1735 18.2684 48.113 18.3934 47.9921 18.4821C47.8792 18.5708 47.7139 18.6151 47.4962 18.6151H41.8485C41.6227 18.6151 41.4574 18.5708 41.3526 18.4821C41.2478 18.3934 41.1954 18.2725 41.1954 18.1193C41.1954 17.9984 41.2317 17.8976 41.3043 17.817C41.3768 17.7283 41.4897 17.6557 41.6429 17.5993L42.1145 17.4783C42.2597 17.43 42.3645 17.3493 42.429 17.2365C42.5015 17.1155 42.5378 16.9301 42.5378 16.6801V9.77463C42.5378 9.565 42.5056 9.41585 42.4411 9.32716C42.3846 9.23847 42.2879 9.18204 42.1508 9.15785L41.5098 9.10947C41.3647 9.07722 41.2599 9.02482 41.1954 8.95226C41.1309 8.87969 41.0987 8.78697 41.0987 8.6741C41.0987 8.53704 41.139 8.42819 41.2196 8.34757C41.3002 8.26694 41.4453 8.18632 41.655 8.10569L43.856 7.30751C44.2511 7.15432 44.5413 7.05757 44.7268 7.01726C44.9122 6.96888 45.0573 6.9447 45.1621 6.9447C45.3395 6.9447 45.4726 7.00517 45.5612 7.1261C45.6499 7.23898 45.7104 7.43651 45.7426 7.7187Z" fill="#0D0D0D"/>
<path d="M57.0386 1.40577V16.6801C57.0386 16.9301 57.0708 17.1155 57.1353 17.2365C57.2079 17.3493 57.3167 17.43 57.4618 17.4783L57.9214 17.5993C58.0746 17.6476 58.1875 17.7162 58.26 17.8049C58.3326 17.8855 58.3689 17.9903 58.3689 18.1193C58.3689 18.2725 58.3165 18.3934 58.2117 18.4821C58.1068 18.5708 57.9375 18.6151 57.7037 18.6151H52.9388C52.713 18.6151 52.5478 18.5708 52.4429 18.4821C52.3381 18.3934 52.2857 18.2725 52.2857 18.1193C52.2857 17.9984 52.322 17.8976 52.3946 17.817C52.4671 17.7283 52.58 17.6557 52.7332 17.5993L53.2049 17.4783C53.35 17.4219 53.4548 17.3372 53.5193 17.2244C53.5919 17.1115 53.6281 16.9301 53.6281 16.6801V3.43752C53.6281 3.23596 53.5959 3.09083 53.5314 3.00215C53.4749 2.91346 53.3782 2.85702 53.2411 2.83283L52.6002 2.78446C52.455 2.74415 52.3502 2.68771 52.2857 2.61515C52.2212 2.54258 52.189 2.44986 52.189 2.33699C52.189 2.20799 52.2293 2.10318 52.3099 2.02255C52.3905 1.94193 52.5357 1.8613 52.7453 1.78068L54.9947 0.958306C55.3172 0.837369 55.5712 0.752713 55.7566 0.704338C55.9421 0.655963 56.1033 0.631775 56.2404 0.631775C56.5064 0.631775 56.704 0.704337 56.833 0.849462C56.97 0.986525 57.0386 1.17196 57.0386 1.40577Z" fill="#0D0D0D"/>
<path d="M64.2787 7.7066V16.6801C64.2787 16.9301 64.311 17.1155 64.3755 17.2365C64.448 17.3493 64.5569 17.43 64.702 17.4783L65.1616 17.5993C65.3148 17.6476 65.4276 17.7162 65.5002 17.8049C65.5728 17.8855 65.609 17.9903 65.609 18.1193C65.609 18.2725 65.5566 18.3934 65.4518 18.4821C65.347 18.5708 65.1777 18.6151 64.9439 18.6151H60.179C59.9532 18.6151 59.7879 18.5708 59.6831 18.4821C59.5783 18.3934 59.5259 18.2725 59.5259 18.1193C59.5259 17.9984 59.5622 17.8976 59.6347 17.817C59.7073 17.7283 59.8202 17.6557 59.9734 17.5993L60.445 17.4783C60.5901 17.4219 60.695 17.3372 60.7595 17.2244C60.832 17.1115 60.8683 16.9301 60.8683 16.6801V9.75044C60.8683 9.54082 60.8361 9.39166 60.7716 9.30297C60.7151 9.21429 60.6184 9.15785 60.4813 9.13366L59.8403 9.08529C59.6952 9.05304 59.5904 9.00063 59.5259 8.92807C59.4614 8.8555 59.4291 8.76279 59.4291 8.64991C59.4291 8.51285 59.4654 8.40401 59.538 8.32338C59.6186 8.24276 59.7678 8.16213 59.9855 8.08151L62.2349 7.25913C62.5493 7.14626 62.7993 7.06563 62.9847 7.01726C63.1782 6.96888 63.3395 6.9447 63.4685 6.9447C63.7426 6.9447 63.9441 7.01726 64.0731 7.16238C64.2102 7.29945 64.2787 7.48085 64.2787 7.7066ZM62.3075 5.09436C61.6625 5.09436 61.1424 4.92908 60.7474 4.59852C60.3604 4.25989 60.1669 3.82049 60.1669 3.2803C60.1669 2.74011 60.3604 2.30877 60.7474 1.98627C61.1424 1.65571 61.6625 1.49043 62.3075 1.49043C62.9605 1.49043 63.4805 1.65571 63.8675 1.98627C64.2626 2.30877 64.4601 2.74011 64.4601 3.2803C64.4601 3.82049 64.2626 4.25989 63.8675 4.59852C63.4805 4.92908 62.9605 5.09436 62.3075 5.09436Z" fill="#0D0D0D"/>
<path d="M71.4475 7.97266C70.8912 7.97266 70.4558 8.11376 70.1413 8.39594C69.835 8.67007 69.6818 9.02079 69.6818 9.4481C69.6818 9.71416 69.7382 9.95603 69.8511 10.1737C69.972 10.3833 70.1978 10.5768 70.5284 10.7542C70.8589 10.9316 71.3427 11.0969 71.9796 11.2501C73.2212 11.5081 74.1807 11.8306 74.8579 12.2176C75.5352 12.6046 76.0068 13.052 76.2729 13.56C76.5389 14.0598 76.672 14.6202 76.672 15.241C76.672 16.3617 76.2769 17.2566 75.4868 17.9258C74.6967 18.5869 73.5478 18.9175 72.0401 18.9175C71.5079 18.9175 71.0726 18.8691 70.7339 18.7724C70.3953 18.6837 70.1172 18.595 69.8995 18.5063C69.6818 18.4095 69.4883 18.3612 69.319 18.3612C69.1497 18.3612 69.0086 18.4095 68.8957 18.5063C68.7909 18.595 68.6901 18.6837 68.5934 18.7724C68.4966 18.8691 68.3676 18.9175 68.2064 18.9175C68.0612 18.9175 67.9524 18.8772 67.8798 18.7965C67.8073 18.7159 67.7387 18.5668 67.6742 18.3491L66.876 15.9182C66.7874 15.6361 66.7591 15.4063 66.7914 15.2289C66.8317 15.0515 66.9406 14.9266 67.1179 14.854C67.3034 14.7895 67.4646 14.7935 67.6017 14.8661C67.7387 14.9306 67.8677 15.0556 67.9887 15.241C68.3515 15.8699 68.7385 16.3738 69.1497 16.7527C69.5609 17.1236 69.9922 17.3937 70.4437 17.563C70.9033 17.7323 71.3709 17.817 71.8466 17.817C72.5399 17.817 73.0559 17.6759 73.3946 17.3937C73.7412 17.1115 73.9146 16.7366 73.9146 16.269C73.9146 15.9868 73.842 15.7328 73.6969 15.5071C73.5518 15.2732 73.2817 15.0636 72.8866 14.8782C72.4916 14.6847 71.9191 14.5033 71.1693 14.334C70.1293 14.1082 69.2988 13.818 68.678 13.4632C68.0653 13.1004 67.6218 12.665 67.3477 12.1571C67.0816 11.6492 66.9486 11.0606 66.9486 10.3914C66.9486 9.68997 67.13 9.07722 67.4928 8.55316C67.8556 8.0291 68.3595 7.62195 69.0045 7.3317C69.6495 7.03338 70.3953 6.88423 71.2419 6.88423C71.7901 6.88423 72.2295 6.9326 72.5601 7.02935C72.8907 7.1261 73.1608 7.22688 73.3704 7.3317C73.5881 7.42845 73.7856 7.47682 73.963 7.47682C74.1565 7.47682 74.3097 7.42845 74.4225 7.3317C74.5354 7.22688 74.6442 7.1261 74.7491 7.02935C74.8539 6.9326 74.9829 6.88423 75.1361 6.88423C75.257 6.88423 75.3578 6.92857 75.4384 7.01726C75.5271 7.09788 75.5916 7.24301 75.6319 7.45263L76.2245 9.76253C76.2809 10.0608 76.293 10.2947 76.2608 10.464C76.2366 10.6333 76.1318 10.7542 75.9463 10.8268C75.769 10.8993 75.6117 10.8913 75.4747 10.8026C75.3376 10.7139 75.2006 10.5567 75.0635 10.3309C74.5636 9.47632 73.9952 8.87163 73.3583 8.51688C72.7294 8.15407 72.0925 7.97266 71.4475 7.97266Z" fill="#0D0D0D"/>
<path d="M78.6138 8.34757L78.0574 8.17826C77.8639 8.11376 77.7269 8.04119 77.6463 7.96057C77.5656 7.87188 77.5253 7.7711 77.5253 7.65823C77.5253 7.49698 77.5777 7.37604 77.6825 7.29541C77.7954 7.20673 77.9446 7.16238 78.13 7.16238H78.8677C79.0612 7.16238 79.2225 7.1261 79.3515 7.05354C79.4805 6.98098 79.6135 6.85198 79.7506 6.66654L81.0688 4.8162C81.2381 4.60658 81.3993 4.45339 81.5525 4.35664C81.7057 4.25989 81.8589 4.21152 82.0121 4.21152C82.1814 4.21152 82.3144 4.26392 82.4112 4.36873C82.5079 4.47355 82.5563 4.62673 82.5563 4.8283V15.1684C82.5563 15.7328 82.6652 16.1641 82.8828 16.4625C83.1086 16.7608 83.419 16.9099 83.8141 16.9099C84.1124 16.9099 84.3421 16.8535 84.5034 16.7406C84.6727 16.6197 84.8057 16.4826 84.9025 16.3294C84.9992 16.1762 85.092 16.0432 85.1806 15.9303C85.2774 15.8094 85.3983 15.7449 85.5435 15.7368C85.6644 15.7368 85.7571 15.7771 85.8216 15.8578C85.8942 15.9384 85.9305 16.0714 85.9305 16.2569C85.9224 16.7164 85.7692 17.1437 85.4709 17.5388C85.1806 17.9339 84.7735 18.2564 84.2494 18.5063C83.7254 18.7482 83.1287 18.8691 82.4596 18.8691C81.4276 18.8691 80.6173 18.6111 80.0287 18.0951C79.4482 17.571 79.158 16.785 79.158 15.7368V9.0611C79.158 8.85147 79.1136 8.69829 79.0249 8.60154C78.9443 8.49672 78.8073 8.41207 78.6138 8.34757ZM81.2139 8.35966V7.16238H85.2169C85.4024 7.16238 85.5475 7.2027 85.6523 7.28332C85.7652 7.35588 85.8216 7.46473 85.8216 7.60985C85.8216 7.81948 85.7168 7.99685 85.5072 8.14198C85.2976 8.2871 84.9589 8.35966 84.4913 8.35966H81.2139Z" fill="#0D0D0D"/>
</svg>
