<svg width="32" height="33" viewBox="0 0 32 33" fill="none" xmlns="http://www.w3.org/2000/svg">
<path d="M16 0.774658C3.55556 0.774658 0 4.33021 0 16.7747C0 29.2191 3.56444 32.7747 16 32.7747C28.4356 32.7747 32 29.2191 32 16.7747C32 4.33021 28.4356 0.774658 16 0.774658Z" fill="#00AA45"/>
<path fill-rule="evenodd" clip-rule="evenodd" d="M4.14146 4.91611C2.05 7.00757 1.14286 10.5763 1.14286 16.7747C1.14286 22.9724 2.05205 26.5414 4.14461 28.633C6.23729 30.7248 9.8064 31.6318 16 31.6318C22.1936 31.6318 25.7627 30.7248 27.8554 28.633C29.948 26.5414 30.8571 22.9724 30.8571 16.7747C30.8571 10.5769 29.948 7.0079 27.8554 4.9163C25.7627 2.82456 22.1936 1.91752 16 1.91752C9.80169 1.91752 6.23291 2.82466 4.14146 4.91611ZM0 16.7747C0 4.33021 3.55556 0.774658 16 0.774658C28.4356 0.774658 32 4.33021 32 16.7747C32 29.2191 28.4356 32.7747 16 32.7747C3.56444 32.7747 0 29.2191 0 16.7747Z" fill="#219653"/>
<path fill-rule="evenodd" clip-rule="evenodd" d="M15.4725 8.20325H8.57141V27.6318H13.934V23.5683H15.4725C19.846 23.5683 23.4286 20.1489 23.4286 15.8858C23.4286 11.6227 19.846 8.20325 15.4725 8.20325ZM13.934 18.362V13.4096H15.4725C16.9253 13.4096 18.0659 14.5384 18.0659 15.8858C18.0659 17.2332 16.9253 18.362 15.4725 18.362H13.934Z" fill="#24292E"/>
<path fill-rule="evenodd" clip-rule="evenodd" d="M10.2856 7.63177H16.6153C20.6937 7.63177 23.9999 10.8155 23.9999 14.7429C23.9999 18.6702 20.6937 21.854 16.6153 21.854H14.5054V25.9175H10.2856V7.63177ZM14.5054 17.7905H16.6153C18.3632 17.7905 19.7802 16.426 19.7802 14.7429C19.7802 13.0597 18.3632 11.6953 16.6153 11.6953H14.5054V17.7905Z" fill="white"/>
<path fill-rule="evenodd" clip-rule="evenodd" d="M9.71423 7.06036H16.6153C20.9888 7.06036 24.5714 10.4798 24.5714 14.7429C24.5714 19.006 20.9888 22.4254 16.6153 22.4254H15.0769V26.4889H9.71423V7.06036ZM10.8571 8.20322V25.3461H13.934V21.2826H16.6153C20.3987 21.2826 23.4285 18.3345 23.4285 14.7429C23.4285 11.1513 20.3987 8.20322 16.6153 8.20322H10.8571ZM13.934 11.1239H16.6153C18.6583 11.1239 20.3516 12.724 20.3516 14.7429C20.3516 16.7618 18.6583 18.362 16.6153 18.362H13.934V11.1239ZM15.0769 12.2667V17.2191H16.6153C18.0681 17.2191 19.2087 16.0903 19.2087 14.7429C19.2087 13.3955 18.0681 12.2667 16.6153 12.2667H15.0769Z" fill="#24292E"/>
</svg>
